<svg width="20" height="20" viewBox="0 0 20 20" fill="none" xmlns="http://www.w3.org/2000/svg">
<style type="text/css">
	.st0{fill:#FFFFFF;}
	.st1{fill:#29ABE2;}
</style>
<g>
	<path class="st0" d="M11.37,19.35c1.98-0.59,3.43-2.43,3.43-4.6c0-2.65-2.15-4.8-4.8-4.8c-2.59,0-4.7-2.11-4.7-4.7
		s2.11-4.7,4.7-4.7c5.21,0,9.45,4.24,9.45,9.45C19.45,14.75,15.93,18.69,11.37,19.35z"/>
	<path class="st0" d="M10,0.6c5.18,0,9.4,4.22,9.4,9.4c0,4.52-3.21,8.31-7.48,9.2c1.72-0.75,2.93-2.46,2.93-4.45
		c0-2.67-2.18-4.85-4.85-4.85c-2.56,0-4.65-2.09-4.65-4.65S7.44,0.6,10,0.6 M10,0.5c-2.62,0-4.75,2.13-4.75,4.75S7.38,10,10,10
		s4.75,2.13,4.75,4.75S12.62,19.5,10,19.5c5.25,0,9.5-4.25,9.5-9.5S15.25,0.5,10,0.5L10,0.5z"/>
</g>
<g>
	<path class="st1" d="M10,19.45c-5.21,0-9.45-4.24-9.45-9.45c0-4.98,3.87-9.07,8.77-9.43C6.99,0.83,5.2,2.84,5.2,5.25
		c0,2.65,2.15,4.8,4.8,4.8c2.59,0,4.7,2.11,4.7,4.7S12.59,19.45,10,19.45z"/>
	<path class="st1" d="M8.08,0.8C6.36,1.54,5.15,3.26,5.15,5.25c0,2.67,2.18,4.85,4.85,4.85c2.56,0,4.65,2.09,4.65,4.65
		S12.56,19.4,10,19.4c-5.18,0-9.4-4.22-9.4-9.4C0.6,5.48,3.81,1.69,8.08,0.8 M10,0.5c-5.25,0-9.5,4.25-9.5,9.5s4.25,9.5,9.5,9.5
		c2.62,0,4.75-2.13,4.75-4.75S12.62,10,10,10S5.25,7.87,5.25,5.25S7.38,0.5,10,0.5L10,0.5z"/>
</g>
<g>
	<circle class="st1" cx="10" cy="5" r="1.2"/>
	<path class="st1" d="M10,3.85c0.63,0,1.15,0.52,1.15,1.15S10.63,6.15,10,6.15S8.85,5.63,8.85,5S9.37,3.85,10,3.85 M10,3.75
		C9.31,3.75,8.75,4.31,8.75,5S9.31,6.25,10,6.25S11.25,5.69,11.25,5S10.69,3.75,10,3.75L10,3.75z"/>
</g>
<g>
	<circle class="st0" cx="10" cy="15" r="1.2"/>
	<path class="st0" d="M10,13.85c0.63,0,1.15,0.52,1.15,1.15s-0.52,1.15-1.15,1.15S8.85,15.63,8.85,15S9.37,13.85,10,13.85 M10,13.75
		c-0.69,0-1.25,0.56-1.25,1.25s0.56,1.25,1.25,1.25s1.25-0.56,1.25-1.25S10.69,13.75,10,13.75L10,13.75z"/>
</g>
</svg>
